<?xml version="1.0" standalone="no"?>
<!DOCTYPE svg PUBLIC "-//W3C//DTD SVG 20010904//EN"
 "http://www.w3.org/TR/2001/REC-SVG-20010904/DTD/svg10.dtd">
<svg version="1.0" xmlns="http://www.w3.org/2000/svg"
 width="299.000000pt" height="299.000000pt" viewBox="0 0 299.000000 299.000000"
 preserveAspectRatio="xMidYMid meet">
<metadata>
Created by potrace 1.11, written by Peter Selinger 2001-2013
</metadata>
<g transform="translate(0.000000,299.000000) scale(0.100000,-0.100000)"
fill="#000000" stroke="none">
<path d="M30 2162 c0 -12 -4 -22 -10 -22 -6 0 -10 -117 -10 -332 0 -219 4
-328 10 -318 5 8 10 10 10 4 0 -11 62 -14 70 -2 3 3 5 97 4 207 0 111 3 201 8
201 4 0 8 -4 8 -10 0 -5 9 -19 20 -30 11 -11 15 -20 9 -20 -8 0 -7 -6 2 -16
22 -26 48 -88 42 -98 -4 -5 -1 -6 5 -2 8 5 12 -2 12 -18 0 -14 5 -26 11 -26 5
0 8 -4 4 -9 -3 -5 -1 -12 5 -16 6 -4 8 -11 5 -16 -4 -5 -2 -9 2 -9 5 0 10 -12
11 -27 1 -15 8 -30 15 -35 18 -11 77 -10 77 3 0 5 4 8 9 5 4 -3 8 2 8 12 0 34
3 43 12 38 5 -4 8 2 6 11 -1 10 1 23 5 28 3 6 13 26 20 45 24 65 71 159 85
170 11 9 13 -55 12 -375 -2 -342 0 -385 14 -385 8 0 21 -6 28 -12 11 -11 12
-10 6 0 -5 10 0 12 23 9 35 -6 46 1 32 19 -12 13 -10 36 4 45 5 4 5 13 0 20
-12 20 -12 49 0 49 6 0 5 4 -3 9 -13 8 -13 12 0 27 12 16 12 17 -1 9 -13 -8
-13 -7 -1 8 7 10 9 17 3 17 -11 0 -10 25 1 36 4 4 2 13 -4 21 -9 10 -8 17 2
30 12 15 12 16 -1 8 -13 -8 -13 -7 -1 8 7 9 9 17 3 17 -10 0 -9 50 2 68 3 6 2
13 -3 17 -7 4 -7 15 -1 30 7 17 6 25 -1 25 -8 0 -8 4 0 13 7 10 7 17 0 24 -7
7 -8 17 -3 25 11 16 11 37 3 64 -4 11 -3 27 1 34 5 8 6 19 2 24 -10 18 -9 46
2 46 7 0 7 3 1 8 -15 11 -17 32 -3 32 9 0 9 3 -1 9 -13 8 -13 12 0 27 12 16
12 17 -1 9 -13 -8 -13 -7 -1 8 7 9 9 17 4 17 -5 0 -9 11 -9 25 0 14 5 25 11
25 5 0 4 4 -4 9 -13 8 -13 12 0 27 12 16 12 17 -1 9 -13 -8 -13 -7 -1 8 7 10
9 17 3 17 -11 0 -11 18 1 37 4 6 3 14 -2 18 -12 7 -10 45 2 45 5 0 4 6 -2 13
-6 8 -9 16 -6 19 3 3 -15 6 -40 6 -26 1 -45 -2 -45 -9 0 -5 -4 -8 -9 -5 -4 3
-8 -5 -7 -17 1 -22 -62 -159 -76 -165 -5 -2 -8 -12 -8 -23 0 -10 -5 -19 -11
-19 -6 0 -9 -7 -5 -15 3 -8 2 -15 -3 -15 -10 0 -63 -115 -70 -153 -6 -27 -7
-27 -26 -12 -11 9 -15 14 -9 11 6 -3 -1 19 -16 48 -16 30 -26 57 -23 60 4 3 1
6 -5 6 -7 0 -12 12 -12 28 0 21 -2 24 -10 12 -8 -13 -10 -12 -10 3 0 46 -100
207 -129 207 -10 0 -40 32 -39 43 0 5 -3 11 -6 15 -3 3 -6 -4 -6 -16z"/>
<path d="M1254 2169 c-3 -5 -14 -9 -24 -9 -23 0 -90 -38 -90 -52 0 -5 -4 -7
-9 -3 -6 3 -15 -4 -21 -15 -6 -11 -18 -20 -27 -20 -9 0 -14 -3 -10 -6 3 -4 -5
-21 -18 -39 -14 -17 -25 -39 -25 -48 0 -10 -4 -17 -10 -17 -5 0 -10 -10 -10
-23 0 -13 -6 -29 -12 -36 -11 -11 -10 -12 2 -6 12 7 13 6 4 -6 -8 -11 -12
-124 -4 -124 1 0 3 -8 5 -19 2 -10 8 -23 14 -29 6 -6 11 -21 11 -33 0 -12 7
-25 16 -28 8 -3 13 -10 9 -15 -3 -5 5 -17 17 -25 12 -9 19 -16 14 -16 -5 0 4
-10 20 -22 16 -13 35 -28 42 -35 8 -7 18 -11 23 -8 5 4 9 1 9 -4 0 -6 7 -11
15 -11 8 0 15 -5 15 -11 0 -6 9 -9 20 -6 11 3 26 0 33 -7 13 -12 135 -16 153
-4 6 4 25 9 43 10 17 1 31 6 31 10 0 4 8 8 18 8 36 0 58 33 54 81 -3 36 -8 45
-23 46 -11 1 -17 -2 -14 -8 4 -5 -3 -9 -14 -9 -12 0 -21 -5 -21 -11 0 -6 -6
-9 -12 -6 -7 2 -26 -2 -43 -8 -16 -7 -56 -11 -88 -10 -57 2 -137 30 -137 47 0
5 -5 6 -10 3 -6 -3 -13 2 -17 12 -4 10 -15 24 -25 31 -10 7 -18 22 -18 33 0
10 -5 19 -11 19 -6 0 -9 6 -6 14 3 7 0 19 -6 25 -6 6 -8 11 -4 11 3 0 2 11 -3
25 -5 14 -6 25 -2 25 4 0 8 15 9 33 4 50 6 57 15 57 4 0 8 9 8 19 0 11 13 30
29 44 17 14 27 28 24 31 -4 3 1 6 11 6 10 0 14 5 10 12 -4 6 -3 8 3 5 5 -3 23
1 39 9 16 9 46 16 66 17 21 0 34 5 31 10 -4 6 -1 7 8 1 8 -4 23 -10 34 -11 11
-2 24 -8 29 -13 16 -16 44 -11 59 10 8 11 16 18 18 16 2 -3 9 6 16 20 10 23 9
25 -24 39 -20 8 -42 15 -49 15 -8 0 -14 4 -14 9 0 5 -38 9 -85 9 -47 0 -87 -4
-91 -9z"/>
<path d="M2042 2168 c-8 -8 -9 -15 -1 -25 9 -10 8 -13 -2 -13 -11 0 -11 -2 0
-9 10 -7 12 -14 5 -23 -8 -11 -10 -33 -4 -48 8 -21 6 -40 -3 -40 -7 0 -6 -5 3
-10 13 -9 13 -11 0 -20 -10 -6 -11 -10 -3 -10 8 0 10 -7 5 -22 -9 -28 -9 -49
1 -65 4 -6 3 -14 -3 -18 -6 -4 -7 -12 -3 -18 12 -20 12 -37 0 -37 -8 0 -7 -3
1 -9 8 -4 14 -12 14 -16 0 -4 -6 -12 -14 -16 -7 -5 -8 -9 -2 -9 14 0 14 -30 0
-30 -6 0 -5 -4 2 -9 8 -4 14 -12 14 -16 0 -4 -6 -12 -14 -16 -7 -5 -8 -9 -2
-9 14 0 14 -30 0 -30 -6 0 -5 -4 2 -9 8 -4 14 -12 14 -16 0 -4 -6 -12 -14 -16
-7 -5 -8 -9 -2 -9 14 0 14 -30 0 -30 -7 0 -7 -3 -1 -8 14 -10 15 -42 1 -42 -6
0 -3 -5 7 -11 9 -6 15 -14 12 -19 -6 -9 21 -7 31 3 4 3 16 1 27 -5 16 -8 19
-8 14 5 -3 8 3 23 14 33 16 14 20 15 17 4 -2 -8 3 -14 10 -12 6 1 12 -2 12 -8
0 -5 9 -10 21 -10 11 0 18 -4 15 -8 -3 -5 8 -8 24 -8 16 0 27 3 24 8 -3 4 3 8
14 8 22 0 82 62 82 85 0 9 5 13 10 10 6 -3 10 4 10 17 0 13 6 30 13 37 10 11
9 12 -3 6 -12 -7 -13 -6 -4 6 13 16 15 171 3 163 -5 -3 -9 4 -9 14 0 32 -26
73 -55 88 -31 16 -130 19 -120 4 3 -5 -1 -10 -9 -10 -8 0 -22 -10 -30 -22 -9
-12 -16 -17 -16 -10 0 7 -4 11 -8 8 -13 -8 -11 107 1 123 9 11 9 13 0 8 -8 -5
-11 11 -9 60 1 38 1 74 -2 81 -5 15 -74 16 -90 0z m247 -353 c17 -34 24 -132
10 -141 -5 -3 -9 -13 -9 -22 0 -10 -9 -24 -19 -32 -11 -7 -18 -17 -15 -22 3
-4 -1 -8 -8 -9 -7 0 -23 -2 -35 -5 -13 -2 -23 0 -23 5 0 5 -12 12 -26 15 -15
4 -24 10 -20 13 3 4 -2 15 -11 26 -10 11 -12 17 -5 13 10 -6 11 -1 6 18 -4 17
-2 26 6 26 6 0 8 5 3 13 -12 20 -14 49 -3 62 5 6 8 15 5 18 -3 4 -2 5 2 2 3
-3 12 4 20 15 8 11 21 20 29 20 8 0 12 5 9 11 -5 7 6 9 31 7 32 -2 42 -9 53
-33z"/>
<path d="M2470 2169 c0 -5 -4 -8 -8 -5 -10 6 -10 -40 0 -50 4 -4 3 -13 -3 -21
-9 -9 -8 -13 0 -13 6 0 11 -5 11 -11 0 -5 -4 -8 -8 -5 -5 3 -9 -1 -9 -9 0 -8
5 -15 10 -15 5 0 3 -8 -4 -17 -10 -11 -10 -14 -1 -9 15 9 15 1 1 -26 -8 -14
-8 -23 0 -31 7 -7 7 -14 0 -24 -8 -9 -8 -13 0 -13 6 0 11 -5 11 -11 0 -5 -4
-8 -8 -5 -5 3 -9 -1 -9 -9 0 -8 5 -15 10 -15 5 0 3 -8 -4 -17 -10 -11 -10 -14
-1 -9 15 9 15 1 1 -25 -7 -14 -7 -24 0 -33 7 -9 7 -16 -1 -24 -9 -9 -9 -12 0
-12 7 0 12 -5 12 -11 0 -5 -4 -8 -8 -5 -5 3 -9 -1 -9 -9 0 -8 5 -15 10 -15 5
0 3 -8 -4 -17 -10 -11 -10 -14 -1 -9 15 9 15 1 1 -25 -7 -14 -7 -24 0 -33 7
-9 7 -16 -1 -24 -9 -9 -9 -12 0 -12 7 0 12 -5 12 -11 0 -5 -4 -8 -8 -5 -5 3
-9 -1 -9 -9 0 -8 4 -15 9 -15 4 0 8 -5 8 -11 0 -5 -4 -8 -8 -5 -5 3 -9 -1 -9
-9 0 -8 4 -15 9 -15 4 0 8 -10 8 -22 0 -17 3 -19 12 -10 7 7 17 8 30 1 12 -7
18 -6 18 1 0 6 5 8 12 4 8 -5 9 0 6 14 -4 12 -2 20 3 16 12 -7 11 3 -2 28 -8
15 -8 19 0 14 14 -9 14 0 0 26 -6 11 -7 18 -2 15 4 -3 7 68 7 156 -1 108 2
167 10 176 8 11 8 13 0 8 -9 -5 -11 15 -10 71 1 42 -2 85 -7 96 -7 14 -6 16 4
11 8 -6 11 -4 6 7 -3 9 0 21 6 28 9 10 9 11 0 6 -7 -4 -13 -2 -13 3 0 6 -18
11 -40 11 -22 0 -40 -5 -40 -11z"/>
<path d="M715 1949 c-5 -5 -20 -17 -31 -27 -18 -14 -20 -21 -11 -42 6 -14 11
-105 11 -202 1 -116 5 -181 13 -189 8 -8 13 -8 18 1 4 7 11 8 19 1 7 -6 17 -6
26 -1 12 7 15 42 15 176 l1 166 29 21 c16 12 25 15 20 8 -6 -11 -4 -12 6 -5
18 11 60 13 53 2 -3 -4 4 -8 15 -8 20 0 25 10 22 39 -2 7 2 10 8 6 7 -4 11 4
11 19 0 25 -2 26 -60 26 -35 0 -74 -7 -90 -15 -28 -14 -35 -13 -31 8 1 5 -3 6
-8 3 -5 -4 -13 0 -18 8 -5 8 -12 10 -18 5z"/>
<path d="M1801 1955 c-1 -6 -14 -11 -31 -11 -16 -1 -37 -5 -47 -9 -10 -5 -23
-9 -30 -11 -7 -1 -28 -17 -47 -36 l-34 -33 28 -28 28 -28 24 23 c28 28 76 51
89 43 5 -4 9 -1 9 5 0 13 46 6 66 -11 8 -6 14 -27 14 -45 0 -32 -1 -33 -25
-24 -14 5 -25 6 -25 1 0 -10 -31 -8 -49 4 -10 5 -12 4 -7 -3 4 -7 1 -12 -10
-12 -26 0 -93 -42 -100 -62 -3 -10 -10 -16 -15 -13 -5 4 -9 -6 -9 -20 0 -14
-4 -24 -8 -21 -11 7 -9 -45 2 -63 6 -10 6 -12 -2 -7 -16 9 -15 -1 1 -21 38
-49 71 -73 99 -73 16 0 27 -4 24 -9 -9 -13 19 -7 38 8 9 7 16 10 16 6 0 -4 16
2 36 14 44 26 50 26 57 1 3 -14 14 -20 31 -20 14 0 26 5 26 10 0 6 7 10 15 10
8 0 15 9 15 20 0 11 -4 20 -8 20 -11 0 -10 -3 -13 152 -1 78 -6 125 -11 122
-6 -4 -5 4 2 16 10 18 9 21 -1 15 -9 -6 -11 -3 -6 8 7 19 -45 67 -74 67 -10 0
-19 6 -19 13 0 8 -4 7 -10 -3 -9 -13 -10 -13 -10 0 0 12 -2 13 -9 1 -7 -11 -9
-11 -14 0 -3 8 -6 9 -6 4z m69 -276 c0 -62 -13 -89 -44 -89 -9 0 -16 -4 -16
-8 0 -16 -62 -7 -74 10 -7 10 -15 15 -18 13 -3 -3 -5 8 -4 24 1 17 7 36 14 43
6 6 12 17 12 24 0 12 28 29 43 26 4 -1 7 3 7 8 0 6 18 10 40 10 l40 0 0 -61z"/>
<path d="M2825 1942 c-22 -2 -43 -9 -47 -15 -6 -9 -8 -9 -8 1 0 8 -8 5 -22 -8
-27 -25 -30 -25 -48 0 -16 23 -47 25 -72 7 -18 -14 -19 -36 -2 -58 5 -8 9 -78
9 -156 -1 -79 3 -143 7 -143 4 0 8 -7 8 -15 0 -8 5 -15 11 -15 5 0 7 -4 4 -10
-3 -5 1 -10 9 -10 9 0 16 -4 16 -10 0 -5 8 -10 18 -10 10 0 24 -6 31 -12 11
-10 13 -10 7 0 -5 7 -1 12 9 12 10 0 14 -5 9 -12 -5 -10 -4 -10 6 -1 10 9 17
10 27 2 9 -8 13 -8 13 0 0 6 10 11 23 11 13 0 29 6 36 13 11 10 12 9 6 -2 -5
-9 0 -8 17 3 14 9 28 14 31 11 4 -3 5 -2 3 1 -2 3 9 18 25 33 l29 28 -25 23
c-22 20 -26 21 -54 9 -16 -7 -27 -17 -25 -21 3 -4 -2 -8 -10 -8 -9 0 -16 -4
-16 -9 0 -5 -11 -8 -25 -7 -13 2 -22 -1 -19 -6 3 -5 -9 -6 -28 -3 -32 6 -76
47 -57 53 6 3 5 9 -2 18 -9 12 -5 14 27 15 37 1 72 5 104 12 8 2 26 9 40 17
14 8 28 13 33 12 4 -1 7 5 7 13 0 8 4 15 8 15 4 0 15 17 25 37 13 29 14 40 4
52 -9 12 -9 13 1 7 7 -4 12 -1 12 9 0 9 -4 13 -10 10 -5 -3 -7 0 -5 8 7 16
-19 70 -28 60 -4 -3 -7 1 -7 10 0 11 -5 14 -17 10 -10 -4 -14 -2 -10 4 8 13
-24 19 -78 15z m36 -94 c20 -22 18 -71 -4 -93 -9 -9 -17 -20 -17 -25 0 -10
-34 -21 -81 -27 -27 -3 -38 0 -42 11 -4 9 -1 16 6 16 8 0 6 4 -3 10 -13 9 -13
10 0 10 12 0 12 2 1 9 -9 6 -10 11 -2 15 6 4 8 13 4 19 -13 20 -12 37 2 37 7
0 18 7 25 15 7 8 16 12 21 9 5 -3 9 -1 9 4 0 16 64 9 81 -10z"/>
<path d="M2674 1333 c5 -10 -7 -13 -51 -14 -32 -1 -61 -1 -65 0 -5 0 -8 -3 -8
-7 0 -4 -17 -8 -37 -8 -21 -1 -54 -4 -73 -8 -19 -4 -43 -8 -52 -9 -10 -1 -18
-4 -18 -8 0 -3 -10 -5 -22 -5 -13 1 -29 -2 -35 -7 -7 -5 -13 -6 -13 -1 0 5 -4
3 -8 -3 -4 -7 -19 -15 -32 -17 -14 -2 -25 -5 -25 -6 0 -1 -16 -4 -35 -7 -19
-2 -38 -9 -41 -15 -4 -6 -15 -8 -24 -4 -12 4 -16 2 -12 -6 3 -8 -6 -14 -24
-15 -16 -1 -39 -8 -51 -15 -13 -7 -30 -13 -38 -14 -25 -3 -45 -9 -50 -15 -6
-8 -121 -50 -137 -52 -7 0 -13 -4 -13 -9 0 -4 -11 -8 -25 -8 -14 0 -25 -4 -25
-8 0 -5 -6 -9 -12 -10 -26 -1 -66 -12 -100 -27 -20 -8 -39 -11 -43 -7 -5 4 -5
1 -1 -5 5 -10 -4 -13 -34 -13 -29 0 -39 -3 -34 -12 5 -8 2 -9 -9 -5 -9 3 -19
2 -22 -3 -3 -5 -12 -7 -20 -3 -8 3 -15 1 -15 -5 0 -5 -18 -9 -39 -8 -22 0 -37
-2 -34 -6 4 -7 -15 -12 -44 -11 -7 1 -13 -2 -13 -6 0 -4 -17 -8 -37 -9 -53 -4
-66 -6 -82 -16 -9 -6 -12 -5 -8 1 3 5 0 10 -8 10 -8 0 -12 -3 -10 -7 2 -4 -21
-8 -52 -9 -31 -1 -63 -7 -72 -14 -12 -10 -13 -9 -7 1 10 16 -25 13 -36 -3 -5
-6 -8 -5 -8 4 0 11 -3 11 -15 1 -12 -10 -15 -10 -15 1 0 9 -3 10 -8 4 -4 -5
-14 -10 -22 -10 -8 0 -18 5 -22 10 -5 6 -8 5 -8 -4 0 -11 -3 -11 -17 0 -13 11
-15 11 -9 1 7 -11 4 -11 -12 -1 -16 10 -24 10 -34 1 -10 -7 -18 -8 -24 -2 -6
6 -36 11 -67 11 -31 1 -57 5 -57 9 0 4 -27 7 -60 6 -33 0 -60 2 -60 5 0 3 -11
5 -25 4 -14 -2 -25 1 -25 7 0 7 -5 6 -14 -1 -10 -8 -16 -8 -25 2 -6 8 -8 17
-4 21 4 4 -5 3 -20 -3 -19 -7 -27 -7 -27 0 0 7 -12 9 -30 7 -21 -3 -27 -1 -20
7 7 8 0 11 -24 10 -19 0 -32 3 -30 7 4 7 -35 13 -58 9 -5 0 -8 4 -8 10 0 5 -4
7 -10 4 -5 -3 -10 -1 -10 5 0 6 -4 9 -9 6 -5 -3 -22 1 -37 9 -16 8 -35 15 -43
15 -8 0 -23 8 -34 18 -15 12 -18 13 -12 2 7 -12 6 -13 -7 -3 -8 7 -18 10 -21
6 -4 -3 -7 -1 -7 5 0 7 -9 12 -20 12 -11 0 -20 5 -20 10 0 6 -9 10 -20 10 -18
0 -20 -7 -20 -54 0 -48 3 -55 23 -62 12 -3 30 -13 40 -22 12 -11 17 -12 17 -2
0 9 3 10 14 1 8 -7 24 -14 37 -16 12 -3 25 -8 28 -12 7 -10 30 -16 54 -15 9 0
15 -3 12 -9 -4 -5 5 -9 19 -9 14 0 28 -5 31 -10 4 -6 12 -10 18 -9 35 4 58 -2
51 -13 -5 -9 -2 -9 9 1 11 9 17 10 17 2 0 -6 11 -11 24 -11 14 0 27 -4 30 -8
2 -4 19 -9 37 -10 18 -2 37 -8 41 -15 6 -9 8 -8 8 3 0 9 3 11 8 5 4 -5 20 -11
36 -12 16 -1 33 -8 38 -15 5 -9 8 -9 8 -1 0 8 9 9 28 4 15 -5 37 -7 50 -5 12
2 22 -1 22 -6 0 -6 5 -10 11 -10 5 0 7 6 3 13 -6 10 -4 10 7 0 19 -18 409 -18
409 0 0 8 4 7 11 -3 8 -11 12 -12 16 -3 3 10 10 10 25 2 13 -7 18 -7 14 -1 -4
7 8 11 31 11 60 1 83 5 83 13 0 4 9 5 20 3 11 -2 20 -1 20 4 0 6 21 10 73 12
9 0 16 3 13 7 -2 4 15 8 38 9 22 2 42 7 44 13 2 5 14 10 27 10 13 0 26 6 28
13 4 9 6 9 6 -1 1 -8 6 -9 19 -3 45 23 69 32 78 30 5 -2 19 2 32 9 12 7 27 10
32 7 6 -3 10 -1 10 4 0 6 11 11 24 11 13 0 29 6 36 14 6 8 17 13 25 10 7 -3
16 -1 20 5 3 6 17 11 31 11 17 0 23 4 18 12 -5 8 -2 9 9 5 10 -3 17 -2 17 4 0
6 4 8 9 4 5 -3 13 0 16 6 4 5 13 8 21 5 7 -3 16 -1 19 5 4 5 11 7 16 4 5 -4 9
-1 9 5 0 6 4 9 9 6 5 -4 11 -2 13 3 1 5 14 11 28 13 14 1 28 7 31 12 4 4 20 9
37 9 17 1 28 5 26 9 -5 7 19 12 39 9 4 -1 15 6 24 15 12 11 18 12 23 4 6 -9 9
-9 12 1 3 8 14 15 26 15 48 3 53 4 48 12 -2 4 5 9 17 10 26 2 71 9 75 12 1 2
11 4 22 5 11 1 21 3 23 5 3 2 58 10 81 10 11 1 28 6 39 11 14 8 17 8 13 0 -4
-6 -2 -11 3 -11 6 0 11 5 11 10 0 7 7 7 21 -1 12 -6 19 -7 16 -2 -4 6 7 10 24
11 20 0 27 -3 22 -11 -5 -9 -3 -9 8 -1 17 12 108 12 128 0 9 -6 12 -5 8 1 -3
5 8 9 28 9 18 -1 31 -4 29 -7 -2 -4 12 -7 31 -7 34 0 35 1 35 42 0 22 -5 48
-10 56 -5 8 -10 10 -10 4 0 -6 -7 -11 -15 -11 -8 0 -12 4 -9 9 5 7 -69 13
-105 9 -8 -2 -10 2 -5 11 6 10 4 10 -9 -1 -12 -10 -21 -10 -30 -3 -8 7 -18 7
-27 2 -20 -13 -33 -12 -24 1 4 7 -1 7 -15 -1 -18 -9 -26 -9 -39 2 -11 9 -14
10 -8 1z"/>
</g>
</svg>
